<mxfile host="app.diagrams.net" modified="2024-01-13T12:25:08.447Z" agent="Mozilla/5.0 (X11; Linux x86_64) AppleWebKit/537.36 (KHTML, like Gecko) Chrome/120.0.0.0 Safari/537.36" version="22.1.18" etag="Hl0z0aTT2vZLYFob7M79" type="github">
  <diagram name="第 1 页" id="u-jctutI2jgBcP-gxJd3">
    <mxGraphModel>
      <root>
        <mxCell id="0" />
        <mxCell id="1" parent="0" />
      </root>
    </mxGraphModel>
  </diagram>
</mxfile>
